<svg xmlns:dc="http://purl.org/dc/elements/1.1/" xmlns:cc="http://creativecommons.org/ns#" xmlns:rdf="http://www.w3.org/1999/02/22-rdf-syntax-ns#" xmlns:svg="http://www.w3.org/2000/svg" xmlns="http://www.w3.org/2000/svg" xmlns:xlink="http://www.w3.org/1999/xlink" id="svg101600" viewBox="0 0 1024 768" height="768px" width="1024px" version="1.1">
  <metadata id="metadata101606">
    <rdf:rdf>
      <cc:work rdf:about="">
        <dc:format>image/svg+xml</dc:format>
        <dc:type rdf:resource="http://purl.org/dc/dcmitype/StillImage"></dc:type>
      </cc:work>
    </rdf:rdf>
  </metadata>
  <defs id="defs101604"></defs>
  <linearGradient spreadMethod="pad" y2="30%" x2="-10%" y1="120%" x1="30%" id="3d_gradient2-logo-5167fa1c-a68e-405a-9a9b-7667b615d2b1">
    <stop id="stop101581" stop-opacity="1" stop-color="#ffffff" offset="0%"></stop>
    <stop id="stop101583" stop-opacity="1" stop-color="#000000" offset="100%"></stop>
  </linearGradient>
  <linearGradient gradientTransform="rotate(-30)" spreadMethod="pad" y2="30%" x2="-10%" y1="120%" x1="30%" id="3d_gradient3-logo-5167fa1c-a68e-405a-9a9b-7667b615d2b1">
    <stop id="stop101586" stop-opacity="1" stop-color="#ffffff" offset="0%"></stop>
    <stop id="stop101588" stop-opacity="1" stop-color="#cccccc" offset="50%"></stop>
    <stop id="stop101590" stop-opacity="1" stop-color="#000000" offset="100%"></stop>
  </linearGradient>
  <g id="logo-group">
    <image xlink:href="" id="container" x="272" y="144" width="480" height="480" style="display: none;" transform="translate(0 0)"></image>
    <g id="logo-center" transform="translate(0 0)">
      <image xlink:href="" id="icon_container" style="display: none;" x="0" y="0"></image>
      <g id="slogan" style="font-style:normal;font-weight:400;font-size:32px;line-height:1;font-family:Montserrat;font-variant-ligatures:none;text-align:center;text-anchor:middle" transform="translate(0 0)"></g>
      <g id="title" style="font-style:normal;font-weight:800;font-size:72px;line-height:1;font-family:'Montserrat ExtraBold Alt1';font-variant-ligatures:none;text-align:center;text-anchor:middle" transform="translate(0 0)">
        <path id="path101609" style="font-style:normal;font-weight:800;font-size:72px;line-height:1;font-family:'Montserrat ExtraBold Alt1';font-variant-ligatures:none;text-align:center;text-anchor:middle" d="m 319.03606,-0.504 c 3.816,1.008 7.776,1.512 11.88,1.512 4.752,0 8.856,-0.72 12.24,-2.16 3.312,-1.44 5.832,-3.456 7.56,-5.904 1.656,-2.448 2.52,-5.184 2.52,-8.208 0,-3.456 -0.936,-6.264 -2.808,-8.28 -1.872,-2.016 -4.032,-3.528 -6.552,-4.464 -2.52,-0.936 -5.688,-1.8 -9.504,-2.664 -3.456,-0.72 -5.904,-1.368 -7.416,-2.088 -1.584,-0.648 -2.304,-1.656 -2.304,-3.024 0,-1.296 0.648,-2.376 1.944,-3.24 1.296,-0.864 3.312,-1.296 6.192,-1.296 4.464,0 9.144,1.296 13.968,3.888 l 4.392,-10.584 c -2.448,-1.44 -5.328,-2.52 -8.496,-3.24 -3.24,-0.72 -6.48,-1.152 -9.792,-1.152 -4.896,0 -9,0.72 -12.312,2.16 -3.312,1.44 -5.832,3.456 -7.488,5.904 -1.728,2.448 -2.52,5.256 -2.52,8.28 0,3.528 0.864,6.336 2.736,8.352 1.8,2.088 3.96,3.6 6.552,4.536 2.52,0.936 5.688,1.8 9.504,2.592 3.456,0.792 5.904,1.512 7.488,2.232 1.584,0.72 2.376,1.728 2.376,3.168 0,2.736 -2.736,4.104 -8.208,4.104 -2.88,0 -5.832,-0.432 -8.784,-1.368 -3.024,-0.864 -5.616,-2.088 -7.848,-3.6 l -4.68,10.512 c 2.376,1.728 5.472,3.024 9.36,4.032 z" stroke-width="0" stroke-linejoin="miter" stroke-miterlimit="2" fill="#00617a" stroke="#00617a" transform="translate(0 305.41312000000005) translate(252.58832000000007 37.62176) scale(1.28) translate(-309.67606 51.408)"></path>
        <path id="path101611" style="font-style:normal;font-weight:800;font-size:72px;line-height:1;font-family:'Montserrat ExtraBold Alt1';font-variant-ligatures:none;text-align:center;text-anchor:middle" d="m 386.03094,-1.584 -3.384,-9.576 c -1.224,0.864 -2.592,1.224 -4.176,1.224 -1.296,0 -2.304,-0.36 -3.024,-1.152 -0.72,-0.792 -1.08,-1.872 -1.08,-3.312 v -12.96 h 8.928 v -10.224 h -8.928 v -10.152 h -13.68 v 10.152 h -5.688 v 10.224 h 5.688 v 13.104 c 0,4.968 1.368,8.712 4.104,11.16 2.736,2.52 6.624,3.744 11.736,3.744 1.872,0 3.6,-0.144 5.256,-0.576 1.656,-0.36 3.096,-0.936 4.248,-1.656 z" stroke-width="0" stroke-linejoin="miter" stroke-miterlimit="2" fill="#00617a" stroke="#00617a" transform="translate(0 305.41312000000005) translate(310.60160640000004 42.32192) scale(1.28) translate(-354.99894 47.736)"></path>
        <path id="path101613" style="font-style:normal;font-weight:800;font-size:72px;line-height:1;font-family:'Montserrat ExtraBold Alt1';font-variant-ligatures:none;text-align:center;text-anchor:middle" d="m 432.34606,-39.024 h -13.68 v 18.792 c 0,3.168 -0.72,5.472 -2.088,6.984 -1.368,1.512 -3.096,2.232 -5.256,2.232 -2.16,0 -3.744,-0.648 -4.824,-2.016 -1.152,-1.296 -1.656,-3.456 -1.656,-6.408 v -19.584 h -13.68 v 21.816 c 0,5.976 1.44,10.44 4.464,13.392 3.024,3.024 7.056,4.464 12.096,4.464 2.232,0 4.392,-0.36 6.408,-1.224 2.016,-0.792 3.744,-2.016 5.184,-3.6 V 0 h 13.032 z" stroke-width="0" stroke-linejoin="miter" stroke-miterlimit="2" fill="#00617a" stroke="#00617a" transform="translate(0 305.41312000000005) translate(356.89040000000006 53.473279999999995) scale(1.28) translate(-391.16206 39.024)"></path>
        <path id="path101615" style="font-style:normal;font-weight:800;font-size:72px;line-height:1;font-family:'Montserrat ExtraBold Alt1';font-variant-ligatures:none;text-align:center;text-anchor:middle" d="m 482.55931,-53.424 h -13.68 v 17.784 c -2.592,-2.664 -6.192,-4.032 -10.8,-4.032 -3.6,0 -6.84,0.864 -9.72,2.448 -2.952,1.656 -5.256,4.032 -6.984,7.056 -1.728,3.024 -2.52,6.552 -2.52,10.584 0,4.032 0.792,7.632 2.52,10.656 1.728,3.096 4.032,5.472 6.984,7.128 2.88,1.656 6.12,2.448 9.72,2.448 5.04,0 8.856,-1.512 11.448,-4.536 V 0 h 13.032 z m -15.768,40.752 c -1.584,1.656 -3.528,2.448 -5.832,2.448 -2.448,0 -4.392,-0.792 -5.904,-2.448 -1.584,-1.656 -2.304,-3.96 -2.304,-6.912 0,-2.88 0.72,-5.112 2.304,-6.768 1.512,-1.584 3.456,-2.448 5.904,-2.448 2.376,0 4.32,0.864 5.832,2.448 1.512,1.656 2.304,3.888 2.304,6.768 0,2.952 -0.792,5.256 -2.304,6.912 z" stroke-width="0" stroke-linejoin="miter" stroke-miterlimit="2" fill="#00617a" stroke="#00617a" transform="translate(0 305.41312000000005) translate(417.9377600000001 35.04127999999999) scale(1.28) translate(-438.85531 53.424)"></path>
        <path id="path101617" style="font-style:normal;font-weight:800;font-size:72px;line-height:1;font-family:'Montserrat ExtraBold Alt1';font-variant-ligatures:none;text-align:center;text-anchor:middle" d="m 532.40244,-39.024 h -13.032 l -9.648,23.832 -9.576,-23.832 h -14.04 l 16.704,39.528 c -0.576,1.152 -1.296,2.016 -2.16,2.52 -0.864,0.576 -1.872,0.792 -3.168,0.792 -1.152,0 -2.232,-0.144 -3.312,-0.576 -1.08,-0.432 -2.016,-1.008 -2.736,-1.728 l -4.752,9.576 c 1.296,1.08 2.952,1.944 5.04,2.592 2.088,0.648 4.176,0.936 6.264,0.936 4.032,0 7.488,-0.936 10.368,-2.88 2.808,-1.944 5.184,-5.328 7.2,-10.152 z" stroke-width="0" stroke-linejoin="miter" stroke-miterlimit="2" fill="#00617a" stroke="#00617a" transform="translate(0 305.41312000000005) translate(478.4192064000001 53.473279999999995) scale(1.28) translate(-486.10644 39.024)"></path>
        <path id="path101619" style="font-style:normal;font-weight:800;font-size:72px;line-height:1;font-family:'Montserrat ExtraBold Alt1';font-variant-ligatures:none;text-align:center;text-anchor:middle" d="m 542.20794,-0.504 c 3.816,1.008 7.776,1.512 11.88,1.512 4.752,0 8.856,-0.72 12.24,-2.16 3.312,-1.44 5.832,-3.456 7.56,-5.904 1.656,-2.448 2.52,-5.184 2.52,-8.208 0,-3.456 -0.936,-6.264 -2.808,-8.28 -1.872,-2.016 -4.032,-3.528 -6.552,-4.464 -2.52,-0.936 -5.688,-1.8 -9.504,-2.664 -3.456,-0.72 -5.904,-1.368 -7.416,-2.088 -1.584,-0.648 -2.304,-1.656 -2.304,-3.024 0,-1.296 0.648,-2.376 1.944,-3.24 1.296,-0.864 3.312,-1.296 6.192,-1.296 4.464,0 9.144,1.296 13.968,3.888 l 4.392,-10.584 c -2.448,-1.44 -5.328,-2.52 -8.496,-3.24 -3.24,-0.72 -6.48,-1.152 -9.792,-1.152 -4.896,0 -9,0.72 -12.312,2.16 -3.312,1.44 -5.832,3.456 -7.488,5.904 -1.728,2.448 -2.52,5.256 -2.52,8.28 0,3.528 0.864,6.336 2.736,8.352 1.8,2.088 3.96,3.6 6.552,4.536 2.52,0.936 5.688,1.8 9.504,2.592 3.456,0.792 5.904,1.512 7.488,2.232 1.584,0.72 2.376,1.728 2.376,3.168 0,2.736 -2.736,4.104 -8.208,4.104 -2.88,0 -5.832,-0.432 -8.784,-1.368 -3.024,-0.864 -5.616,-2.088 -7.848,-3.6 l -4.68,10.512 c 2.376,1.728 5.472,3.024 9.36,4.032 z" stroke-width="0" stroke-linejoin="miter" stroke-miterlimit="2" fill="#83b0b6" stroke="#83b0b6" transform="translate(0 305.41312000000005) translate(538.2483264 37.62176) scale(1.28) translate(-532.84794 51.408)"></path>
        <path id="path101621" style="font-style:normal;font-weight:800;font-size:72px;line-height:1;font-family:'Montserrat ExtraBold Alt1';font-variant-ligatures:none;text-align:center;text-anchor:middle" d="m 622.68369,-39.024 h -13.032 l -9.648,23.832 -9.576,-23.832 h -14.04 l 16.704,39.528 c -0.576,1.152 -1.296,2.016 -2.16,2.52 -0.864,0.576 -1.872,0.792 -3.168,0.792 -1.152,0 -2.232,-0.144 -3.312,-0.576 -1.08,-0.432 -2.016,-1.008 -2.736,-1.728 l -4.752,9.576 c 1.296,1.08 2.952,1.944 5.04,2.592 2.088,0.648 4.176,0.936 6.264,0.936 4.032,0 7.488,-0.936 10.368,-2.88 2.808,-1.944 5.184,-5.328 7.2,-10.152 z" stroke-width="0" stroke-linejoin="miter" stroke-miterlimit="2" fill="#83b0b6" stroke="#83b0b6" transform="translate(0 305.41312000000005) translate(593.9792064 53.473279999999995) scale(1.28) translate(-576.38769 39.024)"></path>
        <path id="path101623" style="font-style:normal;font-weight:800;font-size:72px;line-height:1;font-family:'Montserrat ExtraBold Alt1';font-variant-ligatures:none;text-align:center;text-anchor:middle" d="m 663.22981,-35.352 c -2.952,-2.88 -6.84,-4.32 -11.664,-4.32 -2.52,0 -4.824,0.432 -6.912,1.296 -2.16,0.864 -3.96,2.016 -5.472,3.6 v -4.248 h -13.032 V 0 h 13.68 v -18.864 c 0,-3.024 0.648,-5.328 2.088,-6.912 1.44,-1.512 3.312,-2.304 5.688,-2.304 4.248,0 6.408,2.664 6.408,7.992 V 0 h 13.68 v -22.32 c 0,-5.76 -1.512,-10.152 -4.464,-13.032 z" stroke-width="0" stroke-linejoin="miter" stroke-miterlimit="2" fill="#83b0b6" stroke="#83b0b6" transform="translate(0 305.41312000000005) translate(657.6747199999999 52.643840000000004) scale(1.28) translate(-626.14981 39.672)"></path>
        <path id="path101625" style="font-style:normal;font-weight:800;font-size:72px;line-height:1;font-family:'Montserrat ExtraBold Alt1';font-variant-ligatures:none;text-align:center;text-anchor:middle" d="m 685.12681,-1.944 c 3.384,1.728 7.272,2.592 11.592,2.592 4.392,0 8.208,-0.936 11.448,-2.808 3.168,-1.872 5.472,-4.536 6.84,-7.92 l -10.584,-5.4 c -1.8,3.528 -4.392,5.256 -7.776,5.256 -2.448,0 -4.536,-0.792 -6.12,-2.448 -1.584,-1.656 -2.376,-3.96 -2.376,-6.912 0,-2.88 0.792,-5.112 2.376,-6.768 1.584,-1.584 3.672,-2.448 6.12,-2.448 3.384,0 5.976,1.8 7.776,5.256 l 10.584,-5.4 c -1.368,-3.312 -3.672,-5.976 -6.84,-7.848 -3.24,-1.872 -7.056,-2.88 -11.448,-2.88 -4.32,0 -8.208,0.864 -11.592,2.592 -3.456,1.728 -6.12,4.104 -7.992,7.128 -1.872,3.024 -2.808,6.48 -2.808,10.368 0,3.888 0.936,7.416 2.808,10.44 1.872,3.096 4.536,5.472 7.992,7.2 z" stroke-width="0" stroke-linejoin="miter" stroke-miterlimit="2" fill="#83b0b6" stroke="#83b0b6" transform="translate(0 305.41312000000005) translate(719.34128 52.643840000000004) scale(1.28) translate(-674.32681 39.672)"></path>
      </g>
      <image xlink:href="" id="icon" style="display: none;" x="0" y="0"></image>
    </g>
  </g>
</svg>